<?xml version="1.0" encoding="utf-8"?>
<!-- Generator: Adobe Illustrator 21.1.0, SVG Export Plug-In . SVG Version: 6.00 Build 0)  -->
<svg version="1.1" id="Layer_1" xmlns="http://www.w3.org/2000/svg" xmlns:xlink="http://www.w3.org/1999/xlink" x="0px" y="0px"
	 width="200px" height="200px" viewBox="0 0 200 200" style="enable-background:new 0 0 200 200;" xml:space="preserve">
<style type="text/css">
	.st0{fill:#E42300;}
	.st1{fill:#FFFFFF;}
	.st0:hover{fill:#C41B05}
</style>
<g>
	<rect class="st0" width="200" height="200"/>
	<g>
		<path class="st1" d="M91.5,136.8l-1.4,5.3c-0.3,0-0.7,0.1-1.3,0.1c-2.8,0-2.5-0.8-1.3-5.5c1.2-4.8,2-5.7,3.7-5.7
			c1.7,0,1.7,1.1,1.3,2.6h4.3c0.7-2.7,0.2-5.1-4.8-5.1c-5.6,0-7.1,1.2-8.9,8.2c-1.7,6.5-1.1,8.2,4.9,8.2c2.9,0,4.1-0.2,5.8-0.5
			l2-7.6H91.5L91.5,136.8z"/>
		<path class="st1" d="M101.7,142c-0.6,0-0.8-0.2-0.7-0.6l1-3.8h5.8l0.6-2.5h-5.8l0.7-2.5c0.2-0.7,0.6-1.2,1.6-1.2h4.6l0.6-2.5h-6.7
			c-2.8,0-3.6,0.5-4.7,4.7l-2,7.6c-0.6,2.6,0.2,3.7,2.2,3.7h5.8c1.1,0,1.9-0.6,2.2-1.5l0.5-1.2H101.7L101.7,142z"/>
		<path class="st1" d="M167.5,142c-0.6,0-0.8-0.2-0.7-0.6l1-3.8h5.8l0.6-2.5h-5.8l0.7-2.5c0.2-0.7,0.6-1.2,1.6-1.2h4.6l0.6-2.5h-6.7
			c-2.8,0-3.6,0.5-4.7,4.7l-2,7.6c-0.6,2.6,0.2,3.7,2.2,3.7h5.8c1.1,0,1.9-0.6,2.2-1.5l0.5-1.2H167.5L167.5,142z"/>
		<path class="st1" d="M72.8,142h-1.2l2.8-10.8c0.4,0,0.5,0,1.4,0c2.5,0,2.5,0.8,1.3,5.4C75.9,141.4,75.2,142,72.8,142L72.8,142z
			 M76.5,128.8h-5.8l-4,15.5c-0.1,0.3,0.1,0.5,0.3,0.5h5.1c6.4,0,7.5-1.2,9.3-8.1C83,130.8,82.1,128.8,76.5,128.8L76.5,128.8z"/>
		<path class="st1" d="M157,128.7c-3.3,0-4.9,0.1-5.8,0l-4,15.5c-0.1,0.3,0.1,0.5,0.3,0.5h3.8l3.5-13.5c0.4,0,0.9,0,1.4,0
			c1.9,0,2.1,0.7,1.6,2.6l-2.7,10.5c-0.1,0.3,0.1,0.5,0.3,0.5h3.8l2.8-10.9C163.3,130,161.6,128.7,157,128.7L157,128.7z"/>
		<path class="st1" d="M123.7,128.8l-0.7,2.6h4.3c0,0,0,0.1,0,0.1c-0.7,0.5-1.1,1.2-1.3,2l-2.8,10.8c-0.1,0.3,0.1,0.5,0.3,0.5h4.1
			l3.5-13.4h2.1c1.2,0,1.9-0.5,2.3-1.5l0.4-1.1H123.7L123.7,128.8z"/>
		<path class="st1" d="M63.8,144.8l4-15.5c0.1-0.3-0.1-0.5-0.3-0.5h-4.1l-4,15.5c-0.1,0.3,0.1,0.5,0.3,0.5H63.8L63.8,144.8z"/>
		<path class="st1" d="M139.1,142.3c-1.8,0-2.1-0.7-0.8-5.7c1.1-4.1,2.1-5.6,3.7-5.6c1.8,0,2,1,0.9,5.6
			C141.7,141.2,140.5,142.3,139.1,142.3L139.1,142.3z M142.6,128.5c-4.8,0-6.9,0.9-8.8,8.2c-1.6,6.4-0.3,8.2,4.6,8.2
			c5,0,7-1,8.8-8.2C148.6,131.6,148.3,128.5,142.6,128.5L142.6,128.5z"/>
		<path class="st1" d="M27.4,136.9l2.5-8.8c0.2-0.9,1.2-1.7,2.3-1.7h7.7c0.1,0,0.2,0.2,0.1,0.2c-4,2.7-8.8,6.8-12.3,10.4
			C27.5,137.1,27.3,137,27.4,136.9L27.4,136.9z"/>
		<path class="st1" d="M33.4,142.2l2.5-8.7c0-0.1-0.1-0.2-0.2-0.1c-3.6,3.1-8,7.7-10.8,11.2c-0.1,0.1,0,0.2,0.1,0.2h10.7
			c4.5,0,7-1.4,7.9-4.8c0.7-2.7-0.7-4.6-3-5.1c0,0-0.1-0.1,0-0.1c1.9-0.3,3.9-1.1,4.6-3.9c0.8-3-1.6-4.7-4.3-4.5l-4.1,14.4
			c-0.2,0.8-1.1,1.4-1.8,1.4H33.4L33.4,142.2z"/>
		<path class="st1" d="M56.7,138.3c-0.1-0.5-0.3-0.8-0.5-1.1c0,0,0-0.1,0-0.1c1.8-0.6,3-1.7,3.6-3.7c0.7-2.6-1-4.7-5.1-4.7h-6.2
			l-4,15.5c-0.1,0.3,0.1,0.5,0.3,0.5h3.8l3.5-13.5c0.4,0,0.7,0,1.6,0c1.5,0,2,0.9,1.7,2.2c-0.4,1.6-1.7,2.5-3.2,2.5h-0.6l1.6,7.7
			c0.2,0.8,0.6,1.1,1.4,1.1h3.4L56.7,138.3L56.7,138.3z"/>
		<path class="st1" d="M109.1,139.3c-1.6,3.9,0.5,5.7,4.8,5.7c3.9,0,6.1-0.9,7.1-4.6c0.3-1.2,0.1-2.6-0.6-3.4
			c-1.5-1.6-4.3-1.9-5.3-2.8c-0.5-0.5-0.5-1.1-0.4-1.7c0.3-1,1-1.6,2.1-1.6c1.8,0,1.8,1.1,1.4,2.4h3.8c0.9-2.7-0.3-4.9-4.8-4.9
			c-3.8,0-5.8,1.5-6.6,4.3c-0.2,0.8-0.1,2.1,0.3,2.9c1,1.8,3.8,2,5.3,3.1c0.7,0.5,0.7,1.1,0.5,1.8c-0.3,1.3-1,2-2.3,2
			c-1.3,0-2-0.7-1.3-3.1H109.1L109.1,139.3z"/>
	</g>
	<g>
		<path class="st1" d="M72.3,88.7l9-31.5c0.9-3.2,4.5-6.2,8.1-6.2h27.5c0.5,0,0.6,0.6,0.3,0.8c-14.3,9.8-31.5,24.3-44,37.3
			C72.7,89.5,72.2,89.2,72.3,88.7L72.3,88.7z"/>
		<path class="st1" d="M94,107.7l8.9-31.1c0.1-0.5-0.4-0.8-0.8-0.5C89,87.3,73.3,103.8,63.4,116.2c-0.3,0.3-0.1,0.8,0.3,0.8h38.5
			c16.2,0,25.1-5,28.3-17c2.6-9.8-2.5-16.5-10.7-18.2c-0.1,0-0.3-0.3,0-0.4c6.9-1.2,13.9-4,16.4-14.1c2.7-10.9-5.7-16.9-15.3-16.3
			l-14.7,51.5c-0.8,2.8-3.8,5.1-6.6,5.1H94L94,107.7z"/>
	</g>
</g>
</svg>
