<?xml version="1.0" encoding="utf-8"?>
<!-- Generator: Adobe Illustrator 21.1.0, SVG Export Plug-In . SVG Version: 6.00 Build 0)  -->
<svg version="1.1" id="Layer_1" xmlns="http://www.w3.org/2000/svg" xmlns:xlink="http://www.w3.org/1999/xlink" x="0px" y="0px"
	 width="25px" height="25px" viewBox="0 0 25 25" style="enable-background:new 0 0 25 25;" xml:space="preserve">
<style type="text/css">
	.st0{fill:none;}
	.st1{fill:#FFFFFF;}
</style>
<rect class="st0" width="25" height="25"/>
<path class="st1" d="M24.1,5.3c-0.9,0.4-1.8,0.6-2.7,0.7c1-0.6,1.7-1.5,2.1-2.6c-0.9,0.5-1.9,0.9-3,1.1C19.6,3.6,18.4,3,17,3
	c-2.6,0-4.8,2.1-4.8,4.8c0,0.4,0,0.7,0.1,1.1c-4-0.2-7.5-2.1-9.8-5C2.1,4.6,1.9,5.5,1.9,6.3c0,1.7,0.8,3.1,2.1,4
	c-0.8,0-1.5-0.2-2.2-0.6v0.1c0,2.3,1.6,4.2,3.8,4.7c-0.4,0.1-0.8,0.2-1.3,0.2c-0.3,0-0.6,0-0.9-0.1c0.6,1.9,2.4,3.3,4.5,3.3
	c-1.6,1.3-3.7,2-5.9,2c-0.4,0-0.8,0-1.1-0.1c2.1,1.3,4.6,2.1,7.3,2.1c8.8,0,13.5-7.3,13.5-13.5c0-0.2,0-0.4,0-0.6
	C22.6,7.1,23.6,6.3,24.1,5.3L24.1,5.3z"/>
</svg>
