<?xml version="1.0" encoding="utf-8"?>
<!-- Generator: Adobe Illustrator 21.1.0, SVG Export Plug-In . SVG Version: 6.00 Build 0)  -->
<svg version="1.1" id="Layer_1" xmlns="http://www.w3.org/2000/svg" xmlns:xlink="http://www.w3.org/1999/xlink" x="0px" y="0px"
	 width="154.8px" height="19.1px" viewBox="0 0 154.8 19.1" style="enable-background:new 0 0 154.8 19.1;" xml:space="preserve">
<style type="text/css">
	.st0{fill:#FFFFFF;}
</style>
<g>
	<path class="st0" d="M68.2,10.7l-1.5,5.4c-0.3,0-0.7,0.1-1.3,0.1c-2.9,0-2.6-0.9-1.3-5.6c1.3-4.9,2-5.8,3.8-5.8
		c1.7,0,1.7,1.2,1.3,2.6h4.4c0.7-2.8,0.2-5.2-4.9-5.2c-5.7,0-7.3,1.2-9.1,8.4c-1.7,6.7-1.2,8.4,5,8.4c2.9,0,4.2-0.2,6-0.5l2.1-7.8
		H68.2L68.2,10.7z"/>
	<path class="st0" d="M78.8,16c-0.6,0-0.8-0.2-0.7-0.6l1-3.9H85l0.7-2.6h-5.9l0.7-2.6C80.6,5.6,81.1,5,82,5h4.7l0.7-2.6h-6.9
		c-2.8,0-3.7,0.5-4.8,4.8l-2,7.8c-0.6,2.6,0.2,3.8,2.3,3.8h5.9c1.2,0,1.9-0.6,2.3-1.6l0.5-1.3H78.8L78.8,16z"/>
	<path class="st0" d="M146.2,16c-0.6,0-0.8-0.2-0.7-0.6l1-3.9h5.9l0.7-2.6h-5.9l0.7-2.6c0.2-0.7,0.7-1.3,1.6-1.3h4.7l0.7-2.6H148
		c-2.8,0-3.7,0.5-4.8,4.8l-2,7.8c-0.6,2.6,0.2,3.8,2.3,3.8h5.9c1.2,0,1.9-0.6,2.3-1.6l0.5-1.3H146.2L146.2,16z"/>
	<path class="st0" d="M49.1,16.1h-1.2l2.8-11c0.4,0,0.5,0,1.4,0c2.6,0,2.6,0.8,1.3,5.6C52.3,15.4,51.5,16.1,49.1,16.1L49.1,16.1z
		 M52.9,2.5H47l-4.1,15.9c-0.1,0.3,0.1,0.5,0.4,0.5h5.3c6.6,0,7.7-1.3,9.5-8.3C59.6,4.5,58.6,2.5,52.9,2.5L52.9,2.5z"/>
	<path class="st0" d="M135.4,2.4c-3.4,0-5,0.1-5.9,0l-4.1,15.9c-0.1,0.3,0.1,0.5,0.4,0.5h3.9L133.2,5c0.4,0,0.9,0,1.5,0
		c1.9,0,2.2,0.7,1.7,2.6l-2.8,10.7c-0.1,0.3,0.1,0.5,0.4,0.5h3.9l2.9-11.2C141.8,3.8,140.1,2.4,135.4,2.4L135.4,2.4z"/>
	<path class="st0" d="M101.3,2.5l-0.7,2.7h4.4c0,0,0,0.1,0,0.1c-0.7,0.5-1.1,1.3-1.3,2.1l-2.9,11.1c-0.1,0.3,0.1,0.5,0.4,0.5h4.2
		l3.6-13.7h2.2c1.2,0,2-0.5,2.4-1.6l0.4-1.1H101.3L101.3,2.5z"/>
	<path class="st0" d="M39.9,18.8L44,3c0.1-0.3-0.1-0.5-0.4-0.5h-4.2l-4.1,15.9c-0.1,0.3,0.1,0.5,0.4,0.5H39.9L39.9,18.8z"/>
	<path class="st0" d="M117,16.3c-1.9,0-2.2-0.7-0.9-5.8c1.1-4.2,2.1-5.7,3.8-5.7c1.9,0,2.1,1,0.9,5.7
		C119.6,15.2,118.4,16.3,117,16.3L117,16.3z M120.6,2.2c-5,0-7.1,0.9-9.1,8.4c-1.7,6.5-0.3,8.4,4.7,8.4c5.1,0,7.2-1.1,9.1-8.4
		C126.7,5.3,126.4,2.2,120.6,2.2L120.6,2.2z"/>
	<path class="st0" d="M2.6,10.8l2.6-9C5.4,0.9,6.4,0,7.4,0h7.8c0.1,0,0.2,0.2,0.1,0.2C11.3,3,6.4,7.2,2.8,10.9
		C2.7,11,2.5,10.9,2.6,10.8L2.6,10.8z"/>
	<path class="st0" d="M8.8,16.2l2.5-8.9c0-0.1-0.1-0.2-0.2-0.1C7.4,10.4,2.9,15.1,0,18.6c-0.1,0.1,0,0.2,0.1,0.2h11
		c4.6,0,7.2-1.4,8.1-4.9c0.7-2.8-0.7-4.7-3.1-5.2c0,0-0.1-0.1,0-0.1c2-0.3,4-1.1,4.7-4c0.8-3.1-1.6-4.8-4.4-4.7l-4.2,14.7
		c-0.2,0.8-1.1,1.5-1.9,1.5H8.8L8.8,16.2z"/>
	<path class="st0" d="M32.7,12.3c-0.1-0.5-0.3-0.8-0.5-1.1c0,0,0-0.1,0-0.1c1.9-0.6,3.1-1.8,3.6-3.8c0.7-2.7-1-4.8-5.2-4.8h-6.3
		l-4.1,15.9c-0.1,0.3,0.1,0.5,0.4,0.5h3.9L28,5c0.4,0,0.7,0,1.7,0c1.5,0,2.1,0.9,1.8,2.2c-0.4,1.7-1.7,2.6-3.3,2.6h-0.6l1.6,7.9
		c0.2,0.8,0.6,1.1,1.5,1.1h3.5L32.7,12.3L32.7,12.3z"/>
	<path class="st0" d="M86.3,13.3c-1.7,4,0.5,5.8,4.9,5.8c4,0,6.3-1,7.3-4.7c0.3-1.3,0.1-2.6-0.7-3.5c-1.5-1.6-4.4-2-5.4-2.9
		c-0.5-0.5-0.5-1.2-0.4-1.7c0.3-1.1,1-1.7,2.2-1.7c1.8,0,1.9,1.1,1.4,2.5h3.9c0.9-2.8-0.3-5-4.9-5c-3.9,0-6,1.5-6.7,4.4
		c-0.2,0.8-0.1,2.1,0.3,2.9c1.1,1.8,3.9,2.1,5.5,3.1c0.7,0.5,0.7,1.1,0.5,1.8c-0.4,1.4-1,2-2.4,2c-1.3,0-2.1-0.8-1.3-3.2H86.3
		L86.3,13.3z"/>
</g>
</svg>
