<?xml version="1.0" encoding="utf-8"?>
<!-- Generator: Adobe Illustrator 21.1.0, SVG Export Plug-In . SVG Version: 6.00 Build 0)  -->
<svg version="1.1" id="Layer_1" xmlns="http://www.w3.org/2000/svg" xmlns:xlink="http://www.w3.org/1999/xlink" x="0px" y="0px"
	 width="42px" height="45px" viewBox="0 0 42 45" style="enable-background:new 0 0 42 45;" xml:space="preserve">
<style type="text/css">
	.st0{fill:#00A99D;}
	.st1{fill:#FFFFFF;}
</style>
<g>
	<polygon class="st0" points="42,45 21,35.5 0,45 0,0 42,0 	"/>
	<g>
		<path class="st1" d="M8.5,26.4H6.6v1.9H5.8v-4.6h2.9v0.6H6.6v1.4h1.8V26.4z"/>
		<path class="st1" d="M12,26.3h-1.9v1.4h2.2v0.6h-3v-4.6h3v0.6h-2.2v1.3H12V26.3z"/>
		<path class="st1" d="M15.8,27.2H14l-0.4,1.1h-0.8l1.7-4.6h0.7l1.7,4.6h-0.8L15.8,27.2z M14.2,26.6h1.3l-0.7-1.9L14.2,26.6z"/>
		<path class="st1" d="M20.4,24.4h-1.4v3.9h-0.8v-3.9h-1.4v-0.6h3.6V24.4z"/>
		<path class="st1" d="M24.4,23.7v3.1c0,0.5-0.2,0.9-0.5,1.2c-0.3,0.3-0.7,0.4-1.2,0.4c-0.5,0-0.9-0.1-1.2-0.4
			c-0.3-0.3-0.5-0.7-0.5-1.2v-3h0.8v3c0,0.3,0.1,0.5,0.2,0.7c0.2,0.2,0.4,0.2,0.7,0.2c0.6,0,0.9-0.3,0.9-1v-3H24.4z"/>
		<path class="st1" d="M27,26.5h-0.9v1.8h-0.8v-4.6h1.6c0.5,0,0.9,0.1,1.2,0.4c0.3,0.2,0.4,0.6,0.4,1c0,0.3-0.1,0.6-0.2,0.8
			c-0.1,0.2-0.4,0.4-0.6,0.5l1,1.9v0h-0.8L27,26.5z M26.1,25.9h0.8c0.3,0,0.5-0.1,0.6-0.2c0.2-0.1,0.2-0.3,0.2-0.6
			c0-0.2-0.1-0.4-0.2-0.6c-0.1-0.1-0.3-0.2-0.6-0.2h-0.8V25.9z"/>
		<path class="st1" d="M32,26.3h-1.9v1.4h2.2v0.6h-3v-4.6h3v0.6h-2.2v1.3H32V26.3z"/>
		<path class="st1" d="M33,28.3v-4.6h1.3c0.4,0,0.8,0.1,1.1,0.3c0.3,0.2,0.6,0.4,0.7,0.8c0.2,0.3,0.3,0.7,0.3,1.1v0.2
			c0,0.4-0.1,0.8-0.3,1.1c-0.2,0.3-0.4,0.6-0.7,0.8s-0.7,0.3-1.1,0.3H33z M33.8,24.4v3.3h0.5c0.4,0,0.7-0.1,1-0.4
			c0.2-0.3,0.3-0.6,0.3-1.1v-0.3c0-0.5-0.1-0.9-0.3-1.1c-0.2-0.3-0.5-0.4-0.9-0.4H33.8z"/>
	</g>
	<polygon class="st1" points="21,7.2 22.7,10.9 26.5,11.4 23.8,14.3 24.4,18.3 21,16.4 17.6,18.3 18.2,14.3 15.5,11.4 19.3,10.9 	
		"/>
</g>
</svg>
