<?xml version="1.0" encoding="utf-8"?>
<!-- Generator: Adobe Illustrator 21.1.0, SVG Export Plug-In . SVG Version: 6.00 Build 0)  -->
<svg version="1.1" id="Layer_1" xmlns="http://www.w3.org/2000/svg" xmlns:xlink="http://www.w3.org/1999/xlink" x="0px" y="0px"
	 width="25px" height="25px" viewBox="0 0 25 25" style="enable-background:new 0 0 25 25;" xml:space="preserve">
<style type="text/css">
	.st0{fill:#FFFFFF;}
	.st1{fill:none;}
</style>
<path class="st0" d="M8.3,11.4V14h4.2c-0.2,1.1-1.3,3.2-4.2,3.2c-2.5,0-4.6-2.1-4.6-4.7s2.1-4.7,4.6-4.7c1.4,0,2.4,0.6,3,1.1l2-1.9
	c-1.3-1.2-3-1.9-5-1.9c-4.1,0-7.4,3.3-7.4,7.4s3.3,7.4,7.4,7.4c4.3,0,7.1-3,7.1-7.2c0-0.5-0.1-0.9-0.1-1.2
	C15.3,11.4,8.3,11.4,8.3,11.4z M24.2,11.4H22V9.3h-2.1v2.1h-2.1v2.1h2.1v2.1H22v-2.1h2.1"/>
<rect class="st1" width="25" height="25"/>
</svg>
