<?xml version="1.0" encoding="utf-8"?>
<!-- Generator: Adobe Illustrator 21.1.0, SVG Export Plug-In . SVG Version: 6.00 Build 0)  -->
<svg version="1.1" id="Layer_1" xmlns="http://www.w3.org/2000/svg" xmlns:xlink="http://www.w3.org/1999/xlink" x="0px" y="0px"
	 width="25px" height="25px" viewBox="0 0 25 25" style="enable-background:new 0 0 25 25;" xml:space="preserve">
<style type="text/css">
	.st0{fill:none;}
	.st1{fill:#FFFFFF;}
</style>
<rect class="st0" width="25" height="25"/>
<path class="st1" d="M12.5,1C9.4,1,9,1,7.8,1.1C6.5,1.1,5.7,1.3,5,1.6c-0.8,0.3-1.4,0.7-2,1.3c-0.6,0.6-1,1.3-1.3,2
	C1.3,5.7,1.1,6.5,1.1,7.8C1,9,1,9.4,1,12.5s0,3.5,0.1,4.7c0.1,1.2,0.3,2.1,0.5,2.8c0.3,0.8,0.7,1.4,1.3,2c0.6,0.6,1.3,1,2,1.3
	c0.7,0.3,1.6,0.5,2.8,0.5C9,24,9.4,24,12.5,24s3.5,0,4.7-0.1c1.2-0.1,2.1-0.3,2.8-0.5c0.8-0.3,1.4-0.7,2-1.3c0.6-0.6,1-1.3,1.3-2
	c0.3-0.7,0.5-1.6,0.5-2.8C24,16,24,15.6,24,12.5s0-3.5-0.1-4.7c-0.1-1.2-0.3-2.1-0.5-2.8c-0.3-0.8-0.7-1.4-1.3-2
	c-0.6-0.6-1.3-1-2-1.3c-0.7-0.3-1.6-0.5-2.8-0.5C16,1,15.6,1,12.5,1z M12.5,3.1c3.1,0,3.4,0,4.6,0.1c1.1,0.1,1.7,0.2,2.1,0.4
	c0.5,0.2,0.9,0.5,1.3,0.9c0.4,0.4,0.7,0.8,0.9,1.3c0.2,0.4,0.3,1,0.4,2.1c0.1,1.2,0.1,1.6,0.1,4.6s0,3.4-0.1,4.6
	c-0.1,1.1-0.2,1.7-0.4,2.1c-0.2,0.5-0.5,0.9-0.9,1.3c-0.4,0.4-0.8,0.7-1.3,0.9c-0.4,0.2-1,0.3-2.1,0.4c-1.2,0.1-1.6,0.1-4.7,0.1
	s-3.4,0-4.7-0.1c-1.1-0.1-1.7-0.2-2.1-0.4c-0.5-0.2-0.9-0.5-1.3-0.9c-0.4-0.4-0.7-0.8-0.9-1.3c-0.2-0.4-0.3-1-0.4-2.1
	C3,15.9,3,15.5,3,12.5S3,9,3.1,7.8c0.1-1.1,0.2-1.7,0.4-2.1c0.2-0.5,0.5-0.9,0.9-1.3C4.8,4,5.1,3.7,5.7,3.5c0.4-0.2,1-0.3,2.1-0.4
	C9,3.1,9.4,3,12.5,3.1L12.5,3.1z M12.5,6.6c-3.3,0-5.9,2.6-5.9,5.9c0,3.3,2.6,5.9,5.9,5.9c3.3,0,5.9-2.6,5.9-5.9
	C18.4,9.2,15.8,6.6,12.5,6.6z M12.5,16.3c-2.1,0-3.8-1.7-3.8-3.8s1.7-3.8,3.8-3.8s3.8,1.7,3.8,3.8S14.6,16.3,12.5,16.3z M20,6.4
	c0,0.8-0.6,1.4-1.4,1.4s-1.4-0.6-1.4-1.4S17.9,5,18.6,5S20,5.6,20,6.4z"/>
</svg>
