<?xml version="1.0" encoding="utf-8"?>
<!-- Generator: Adobe Illustrator 16.0.5, SVG Export Plug-In . SVG Version: 6.00 Build 0)  -->
<!DOCTYPE svg PUBLIC "-//W3C//DTD SVG 1.1//EN" "http://www.w3.org/Graphics/SVG/1.1/DTD/svg11.dtd">
<svg version="1.1" id="Layer_1" xmlns="http://www.w3.org/2000/svg" xmlns:xlink="http://www.w3.org/1999/xlink" x="0px" y="0px"
	 width="127.073px" height="13px" viewBox="100.7 10.301 127.073 13" enable-background="new 100.7 10.301 127.073 13"
	 xml:space="preserve">
<path fill="#FF0000" d="M103.918,10.379h11.348c3.211,0,4.583,0.798,4.702,2.964c0.078,1.413,0.049,6.376-5.723,6.376h-5.354
	l-0.828,3.529H100.7L103.918,10.379z M109.569,17.069h1.439c1.384,0,2.089-0.871,2.376-3.153c0.092-0.729-0.397-1.155-1.245-1.155
	h-1.411L109.569,17.069z"/>
<path fill="#FF0000" d="M121.551,12.59c1.599-2.514,3.031-2.275,8.581-2.275c4.286,0,7.904-0.442,8.129,3.651
	c0.104,1.891-0.432,5.06-1.983,7.214c-1.46,2.025-4.215,2.067-8.252,2.067c-4.614,0-7.73-0.45-8.129-3.848
	C119.576,16.67,120.232,14.684,121.551,12.59z M127.714,13.674c-0.493,0.936-1.437,4.965-1.4,5.625
	c0.075,1.358,0.975,1.67,1.803,1.67c1.474,0,1.749-0.238,2.299-1.247c0.202-0.367,1.452-4.322,1.37-5.81
	c-0.053-0.954-0.333-1.541-1.726-1.541C129.07,12.371,128.372,12.425,127.714,13.674z"/>
<path fill="#FF0000" d="M143.492,13.511h-4.841l0.737-3.131h17.463l-0.737,3.131h-4.884l-2.34,9.738h-7.739L143.492,13.511z"/>
<path fill="#FF0000" d="M157.598,10.379h15.77l-0.71,3.075h-8.665l-0.45,1.722h8.665l-0.652,2.828h-8.665l-0.405,1.809h8.665
	l-0.798,3.436h-15.75L157.598,10.379z"/>
<path fill="#FF0000" d="M174.509,10.379h5.851l4.6,4.971h0.04l1.235-4.971h4.595l-2.848,12.869h-5.28l-5.124-5.916h-0.041
	l-1.403,5.916h-4.781L174.509,10.379z"/>
<path fill="#FF0000" d="M197.012,13.565l-0.001-0.037h-5.543l0.771-3.149h16.126l-8.355,9.393l0.002,0.037h6.502l-0.843,3.438
	h-17.272L197.012,13.565z"/>
<path fill="#FF0000" d="M213.982,10.432h9.669l3.048,12.87h-7.599l-0.397-2.237h-5.28l-1.273,2.237h-5.89L213.982,10.432z
	 M217.721,13.891l-2.297,3.893h2.785L217.721,13.891z"/>
<g>
	<path fill="#FF0000" d="M225.819,10.743h-0.47v1.299h-0.246v-1.299h-0.47v-0.2h1.186V10.743L225.819,10.743z M227.773,12.042
		h-0.248v-1.251h-0.007l-0.491,1.251h-0.156l-0.491-1.251h-0.008v1.251h-0.247v-1.499h0.382l0.447,1.139l0.439-1.139h0.379
		L227.773,12.042L227.773,12.042z"/>
</g>
</svg>
