<?xml version="1.0" encoding="utf-8"?>
<!-- Generator: Adobe Illustrator 16.0.5, SVG Export Plug-In . SVG Version: 6.00 Build 0)  -->
<!DOCTYPE svg PUBLIC "-//W3C//DTD SVG 1.1//EN" "http://www.w3.org/Graphics/SVG/1.1/DTD/svg11.dtd">
<svg version="1.1" id="Layer_1" xmlns="http://www.w3.org/2000/svg" xmlns:xlink="http://www.w3.org/1999/xlink" x="0px" y="0px"
	 width="182.202px" height="13px" viewBox="24.07 1.717 182.202 13" enable-background="new 24.07 1.717 182.202 13"
	 xml:space="preserve">
<path fill="#144DDF" d="M37.134,14.711l-6.885,0.002l3.21-10.932h-9.39l0.61-2.062h25.5L49.58,3.781h-8.134
	c-0.631,0-1.291,0.512-1.474,1.143L37.134,14.711L37.134,14.711z"/>
<path fill="#144DDF" d="M74.739,1.718l-2.906,10.021c-0.476,1.642-2.192,2.972-3.833,2.972H52.06c-1.831,0-2.884-1.483-2.354-3.314
	l2.807-9.679h6.784l-2.769,9.551c-0.238,0.82,0.234,1.486,1.055,1.486l8.509-0.001c0.694,0,1.42-0.563,1.622-1.257l2.836-9.779
	L74.739,1.718L74.739,1.718z"/>
<path fill="#144DDF" d="M92.739,9.545h2.622c1.641,0,3.358-1.33,3.833-2.971l0.545-1.886c0.476-1.641-0.468-2.972-2.11-2.972
	L78.343,1.718l-3.767,12.993h6.815l3.17-10.93h7.112c0.631,0,0.995,0.512,0.812,1.143l-0.614,2.114
	c-0.219,0.757-1.012,1.372-1.77,1.372h-4.758l-0.39,1.375l4.668,3.777c0.711,0.562,1.726,1.149,3.332,1.149c0.54,0,6.417,0,6.417,0
	L92.739,9.545L92.739,9.545z"/>
<path fill="#144DDF" d="M126.684,14.697L124.39,3.776c-0.239-1.135-1.354-2.058-2.49-2.058h-10.307
	c-0.631,0-1.547,0.512-2.045,1.143l-9.354,11.849l4.802-0.003l8.125-10.56c0.292-0.379,0.835-0.686,1.213-0.686h1.59
	c0.633,0,1.25,0.512,1.382,1.143l1.271,6.054l-8.28,0l-1.556,2.095h9.363c0.506,0,1,0.41,1.106,0.915l0.22,1.048L126.684,14.697
	L126.684,14.697z"/>
<path fill="#144DDF" d="M202.564,14.697l-2.293-10.921c-0.239-1.135-1.354-2.058-2.489-2.058h-10.307
	c-0.632,0-1.548,0.512-2.046,1.143l-9.354,11.849l4.802-0.003l8.125-10.559c0.293-0.379,0.835-0.686,1.214-0.686h1.592
	c0.631,0,1.249,0.512,1.383,1.143l1.27,6.054l-8.279,0l-1.557,2.096h9.364c0.505,0,1.001,0.409,1.106,0.915l0.22,1.048
	L202.564,14.697L202.564,14.697z"/>
<path fill="#144DDF" d="M151.127,14.711h-8.366c-0.757,0-1.752-0.614-2.223-1.372l-5.389-8.675l-2.919,10.047h-4.196l3.748-12.991
	h8.256c0.757,0,1.753,0.614,2.223,1.372l5.423,8.731l2.883-10.104h4.387L151.127,14.711L151.127,14.711z"/>
<path fill="#144DDF" d="M167.375,3.781l-10.556,7.469c-1.267,0.978-2.364,1.596-2.911,3.46h20.975l0.607-1.956h-10.736l10.871-7.616
	c1.383-1.077,2.715-1.829,3.037-3.419H157.68l-0.604,2.062L167.375,3.781L167.375,3.781z"/>
<g>
	<path fill="#144DDF" d="M203.363,2.123h-0.696v1.931h-0.4V2.123h-0.697V1.793h1.794V2.123L203.363,2.123z M205.02,3.455
		l0.638-1.662h0.614v2.26h-0.4V2.215h-0.012l-0.707,1.838h-0.274l-0.707-1.838h-0.011v1.838h-0.401v-2.26h0.615L205.02,3.455z"/>
</g>
</svg>
