<?xml version="1.0" encoding="utf-8"?>
<!-- Generator: Adobe Illustrator 21.1.0, SVG Export Plug-In . SVG Version: 6.00 Build 0)  -->
<svg version="1.1" id="Layer_1" xmlns="http://www.w3.org/2000/svg" xmlns:xlink="http://www.w3.org/1999/xlink" x="0px" y="0px"
	 width="25px" height="25px" viewBox="0 0 25 25" style="enable-background:new 0 0 25 25;" xml:space="preserve">
<style type="text/css">
	.st0{fill:none;}
	.st1{opacity:0.12;fill-rule:evenodd;clip-rule:evenodd;}
	.st2{fill:#FFFFFF;}
</style>
<g>
	<rect class="st0" width="25" height="25"/>
</g>
<g>
	<path id="The_Sharpness" class="st1" d="M9.9,8.7l5.9,4l0.8-0.4L9.9,8.7z"/>
	<g id="Lozenge">
		<g>
			<path class="st2" d="M24.8,7.5c0,0-0.2-1.7-1-2.5c-1-1-2-1-2.5-1.1c-3.5-0.3-8.7-0.3-8.7-0.3h0c0,0-5.2,0-8.7,0.3
				C3.3,4,2.2,4,1.2,5c-0.7,0.8-1,2.5-1,2.5s-0.2,2-0.2,4v1.9c0,2,0.2,4,0.2,4s0.2,1.7,1,2.5c1,1,2.2,1,2.8,1.1
				c2,0.2,8.5,0.3,8.5,0.3s5.3,0,8.8-0.3c0.5-0.1,1.6-0.1,2.5-1.1c0.7-0.8,1-2.5,1-2.5s0.2-2,0.2-4v-1.9C25,9.5,24.8,7.5,24.8,7.5z
				 M9.9,15.7l0-7l6.8,3.5L9.9,15.7z"/>
		</g>
	</g>
</g>
</svg>
